<?xml version="1.0" standalone="no"?><!DOCTYPE svg PUBLIC "-//W3C//DTD SVG 1.1//EN" "http://www.w3.org/Graphics/SVG/1.1/DTD/svg11.dtd"><svg t="1739120640035" class="icon" viewBox="0 0 1024 1024" version="1.1" xmlns="http://www.w3.org/2000/svg" p-id="28099" xmlns:xlink="http://www.w3.org/1999/xlink" width="256" height="256"><path d="M272 512v160c0 44.16 35.84 80 80 80h354.048A64 64 0 0 1 768 704h64a64 64 0 0 1 64 64v64a64 64 0 0 1-64 64h-64a64 64 0 0 1-61.952-48H352a176 176 0 0 1-176-176V317.952A64 64 0 0 1 128 256v-64a64 64 0 0 1 64-64h64a64 64 0 0 1 64 64v64a64 64 0 0 1-48 61.952V432h434.048A64 64 0 0 1 768 384h64a64 64 0 0 1 64 64v64a64 64 0 0 1-64 64h-64a64 64 0 0 1-64-64H272z" fill="#ffffff" p-id="28100"></path></svg>