<?xml version="1.0" standalone="no"?><!DOCTYPE svg PUBLIC "-//W3C//DTD SVG 1.1//EN" "http://www.w3.org/Graphics/SVG/1.1/DTD/svg11.dtd">
<svg t="1739119005683" class="icon" viewBox="0 0 1024 1024" version="1.1"
    xmlns="http://www.w3.org/2000/svg" p-id="24710"
    xmlns:xlink="http://www.w3.org/1999/xlink" width="256" height="256">
    <path d="M512 0a512 512 0 1 0 512 512A512 512 0 0 0 512 0z m105.960727 964.817455c-39.144727-52.945455-49.989818-116.689455-55.854545-183.854546a85.783273 85.783273 0 0 1 12.893091-53.015273l6.981818-10.868363 0.581818-0.442182a109.149091 109.149091 0 0 0 51.2 22.318545h0.651636c1.675636 0.256 3.374545 0.488727 5.073455 0.674909l1.512727 0.16291c1.489455 0.139636 3.002182 0.279273 4.514909 0.34909l1.536 0.116364c1.978182 0 3.979636 0.139636 5.981091 0.139636a109.195636 109.195636 0 0 0 81.291637-34.024727 80.058182 80.058182 0 0 0 17.92-32.139636 141.358545 141.358545 0 0 0 134.981818-141.172364 141.428364 141.428364 0 0 0-86.388364-130.327273 125.323636 125.323636 0 0 0 13.963637-53.946181v-3.909819a126.114909 126.114909 0 0 0-126.11491-126.091636c-1.978182 0-3.933091 0-5.888 0.139636h-0.86109c-1.861818 0-3.723636 0.232727-5.562182 0.41891h-0.977455c-1.861818 0.209455-3.700364 0.442182-5.538909 0.721454h-0.651636a126.068364 126.068364 0 0 0-35.816728 11.240727 126.347636 126.347636 0 0 0-75.333818-83.409454c-1.582545-0.628364-3.188364-1.210182-4.794182-1.792a127.534545 127.534545 0 0 0-9.890909-2.955637A125.905455 125.905455 0 0 0 512 139.636364c-2.024727 0-4.026182 0-6.027636 0.162909h-1.512728a126.184727 126.184727 0 0 0-113.873454 91.857454 126.114909 126.114909 0 0 0-167.354182 171.194182 141.358545 141.358545 0 0 0 48.546909 271.453091 94.836364 94.836364 0 0 0 73.960727 63.511273c1.885091 0.418909 3.816727 0.768 5.748364 1.093818h0.465455c1.978182 0.302545 3.956364 0.581818 5.957818 0.791273h0.488727c1.768727 0.186182 3.537455 0.325818 5.329455 0.418909H377.111273l3.490909-0.232728 1.815273-0.162909 2.90909-0.302545 2.048-0.279273 2.606546-0.372363 2.210909-0.372364 2.327273-0.442182 2.327272-0.512q1.047273-0.209455 2.094546-0.488727c0.837818-0.186182 1.652364-0.395636 2.490182-0.628364l1.792-0.488727 2.676363-0.768 1.419637-0.465455 2.932363-0.977454 0.791273-0.302546a106.868364 106.868364 0 0 0 21.922909-10.845091c1.117091-0.721455 2.187636-1.466182 3.258182-2.327272l12.497455 20.805818a84.224 84.224 0 0 1 11.310545 54.039273c-8.029091 61.835636-18.176 120.343273-54.225455 169.518545a465.454545 465.454545 0 1 1 212.154182 0.302546z" fill="#141414" p-id="24711"></path>
</svg>