<svg height="511pt" viewBox="0 0 511 511.99815" width="511pt" xmlns="http://www.w3.org/2000/svg"><path d="m509.914062 295.742188c-3.648437-15.574219-13.144531-28.792969-26.734374-37.226563-13.59375-8.433594-29.65625-11.066406-45.230469-7.417969-23.175781 5.429688-58.4375 31.960938-65.453125 61.5-24.074219 5.371094-43.910156 8.917969-59.722656 11.257813 15.847656-17.242188 30.746093-35.308594 44.621093-54.136719 39.753907-53.953125 62.359375-102.140625 73.777344-130.882812 29.738281-6.195313 55.542969-43.109376 60.839844-66.113282 3.554687-15.445312.871093-31.351562-7.558594-44.789062-8.464844-13.492188-21.699219-22.878906-37.265625-26.425782-32.023438-7.296874-64.058594 12.726563-71.40625 44.640626-4.425781 19.234374-2.007812 51.03125 11.191406 72.078124 1.960938 3.125 4.03125 5.777344 6.148438 8.0625-7.15625 17.648438-18.851563 43.125-36.503906 72.628907-9.703126-33.785157-25.425782-66.714844-46.636719-97.480469 2.695312-9.992188 2.515625-21.945312-.6875-35.261719-4.105469-17.085937-12.683594-34.601562-22.386719-45.714843-10.511719-12.042969-25.082031-19.257813-41.019531-20.324219-15.933594-1.066407-31.328125 4.144531-43.347657 14.675781-24.785156 21.714844-27.316406 59.582031-5.636718 84.414062 14.515625 16.621094 43.804687 30.84375 66.675781 32.375 1.496094.097657 2.9375.144532 4.335937.144532 5.023438 0 9.417969-.625 13.261719-1.621094 23.832031 36.292969 39.0625 75.582031 44.617188 115.171875-.535157.726563-1.066407 1.457031-1.609375 2.1875-37.453125 50.511719-96.800782 113.332031-185.492188 165.546875 1.992188-7.769531 4.519532-16.554688 7.699219-25.992188 7.730469-22.957031 20.957031-54.300781 41.9375-82.226562 2.351563.375 4.878906.597656 7.605469.597656 2.097656 0 4.308594-.128906 6.632812-.402344 24.242188-2.859374 51.855469-21.261718 64.550782-37.402343 20.378906-25.90625 15.9375-63.613281-9.90625-84.050781-12.535157-9.914063-28.171876-14.34375-44.03125-12.46875-15.867188 1.871093-30.054688 9.828124-39.945313 22.402343-14.171875 18.019531-26.675781 58.753907-15.917969 86.132813-12.6875 16.667968-23.0625 34.46875-31.496094 52.003906-3.671874-19.734375-8.308593-37.429688-13.015624-51.683594 7.226562-9.535156 11.195312-23.023437 11.425781-39.496094.242187-17.589843-3.75-36.710937-10.421875-49.894531-14.90625-29.460937-51.007813-41.300781-80.46875-26.390625-29.464844 14.90625-41.304688 51.003906-26.394532 80.464844 6.65625 13.15625 20.476563 27.628906 36.0625 37.765625 11.363282 7.390625 22.472657 11.679687 32.730469 12.800781 9.566407 30.105469 21.910157 85.664063 16.382813 142.832032-27.253906 13.285156-56.835938 25.46875-88.914063 36.066406l12.523438 37.910156c42.277343-13.96875 82.421875-31.167969 120.128906-51.429688 25.039063 4.636719 70.074219 11.546876 123.121094 13.207032 17.527343 25.210937 63.386719 37.035156 83.367187 37.230468.199219 0 .398438.003907.597656.003907 15.753907 0 30.597657-6.078125 41.855469-17.148438 11.386719-11.199219 17.746094-26.171875 17.902344-42.152343.320313-33.019532-26.234375-60.144532-59.191406-60.464844-.179688-.003906-.363281-.003906-.546875-.003906-14.511719 0-35 5.566406-52.410156 14.261718-18.300782 9.140625-28.277344 19.085938-33.472657 28.265625-24.695312-.894531-47.625-2.984375-67.257812-5.386719 12.894531-8.511718 25.449219-17.414062 37.636719-26.714843 13.910156-10.621094 27.34375-21.773438 40.300781-33.394531 12.128906-.21875 49.265625-2.265626 115.511719-17.183594 6.53125 6.464844 16.652343 12.554687 32.351562 16.128906 8.480469 1.929688 17.734375 2.898438 26.703125 2.898438 8.152344 0 16.066406-.800782 22.941406-2.414063 15.574219-3.644531 28.792969-13.140625 37.226563-26.734375 8.433594-13.589844 11.066406-29.652344 7.417968-45.226562zm-258.269531-207.496094c-11.589843-4.359375-20.914062-10.976563-24.671875-15.28125-7.222656-8.273438-6.382812-20.890625 1.875-28.125 3.648438-3.195313 8.230469-4.917969 13.027344-4.917969.449219 0 .898438.015625 1.347656.046875 5.289063.351562 10.121094 2.75 13.609375 6.746094 4.070313 4.660156 9.628907 14.472656 12.882813 25.890625 3.148437 11.0625 2.246094 17.101562 1.617187 18.859375-1.878906.546875-8.3125 1.0625-19.6875-3.21875zm163.042969-33.144532c2.078125-9.039062 10.210938-15.171874 19.199219-15.171874 1.460937 0 2.945312.164062 4.429687.5 5.152344 1.175781 9.527344 4.273437 12.316406 8.71875 2.753907 4.390624 3.632813 9.582031 2.472657 14.617187-1.261719 5.472656-6.316407 15.472656-14.4375 24.492187-8.050781 8.9375-13.90625 11.238282-15.664063 11.519532-1.289062-1.066406-4.921875-5.660156-7.386718-16.566406-2.535157-11.203126-2.292969-22.1875-.929688-28.109376zm-220.566406 190.253907c2.152344-12.25 6.949218-22.679688 10.492187-27.183594 3.285157-4.179687 7.988281-6.820313 13.246094-7.441406 5.246094-.621094 10.429687.847656 14.582031 4.136719 8.625 6.816406 10.101563 19.40625 3.296875 28.058593-3.816406 4.851563-12.402343 12.117188-22.984375 17.410157-10.238281 5.125-16.316406 5.363281-18.164062 5.070312-.886719-1.757812-2.585938-8.015625-.46875-20.050781zm117.929687 194.128906c12.191407-5.480469 24.691407-8.320313 30.878907-8.320313.066406 0 .128906 0 .191406.003907 10.949218.105469 19.765625 9.148437 19.660156 20.152343-.050781 5.34375-2.171875 10.339844-5.96875 14.078126-3.785156 3.71875-8.769531 5.761718-14.074219 5.6875-6.273437-.058594-18.695312-2.4375-31.144531-7.515626-11.199219-4.570312-16.757812-8.996093-18.914062-11.355468 2.269531-2.746094 8.335937-7.765625 19.371093-12.730469zm-269.484375-212.882813c-2.40625-4.757812-2.816406-10.167968-1.15625-15.234374 1.660156-5.066407 5.195313-9.179688 9.953125-11.589844 2.882813-1.457032 5.953125-2.148438 8.980469-2.148438 7.292969 0 14.332031 4.007813 17.84375 10.949219 2.800781 5.53125 5.773438 16.4375 6.101562 28.324219.320313 11.535156-2.066406 17.160156-3.113281 18.691406-1.9375.082031-8.335937-1-18.375-8-10.203125-7.113281-17.640625-15.871094-20.234375-20.992188zm426.003906 93.324219c-2.808593 4.53125-7.214843 7.695313-12.40625 8.910157-6.222656 1.457031-17.429687 2.058593-28.441406.109374-10.695312-1.894531-15.378906-5.140624-16.519531-6.339843.21875-2.296875 3.125-8.929688 11.457031-17.078125 8.699219-8.5 18.855469-14.261719 24.394532-15.5625 5.191406-1.210938 10.546874-.335938 15.078124 2.476562 4.53125 2.808594 7.695313 7.214844 8.910157 12.410156 1.21875 5.1875.339843 10.542969-2.472657 15.074219zm0 0"/></svg>